# xmcd
#
# Track frame offsets:
#	150
#	12732
#	32338
#	48136
#	63158
#	80778
#	96317
#	121385
#	140552
#	164833
#	181073
#	199390
#
# Disc length: 2980 seconds
#
# Revision: 0
# Processed by: cddbd v1.4PL0 Copyright (c) Steve Scherf et al.
# Submitted via: dBpowerAMP V4.0
#
DISCID=a80ba20c
DTITLE=Deana Carter - Evertything's Gonna Be Alright
DYEAR=1900
DGENRE=Country
TTITLE0=You Still Shake Me
TTITLE1=Ruby Brown
TTITLE2=Absence of the Heart
TTITLE3=Brand New Key
TTITLE4=Michelangelo Sky
TTITLE5=People Miss Planes
TTITLE6=Never Comin' Down
TTITLE7=Make Up Your Mind
TTITLE8=Colour Everywhere
TTITLE9=Angels Working Overtime
TTITLE10=Dickson County
TTITLE11=The Train Song
EXTD=
EXTT0=
EXTT1=
EXTT2=
EXTT3=
EXTT4=
EXTT5=
EXTT6=
EXTT7=
EXTT8=
EXTT9=
EXTT10=
EXTT11=
PLAYORDER=
